<?xml version="1.0" encoding="UTF-8" standalone="no"?>
<!DOCTYPE svg PUBLIC "-//W3C//DTD SVG 20010904//EN"
              "http://www.w3.org/TR/2001/REC-SVG-20010904/DTD/svg10.dtd">

<svg xmlns="http://www.w3.org/2000/svg"
     width="228.924mm" height="64.5503mm"
     viewBox="0 0 649 183">
  <defs>
    <linearGradient id="logo_color" x1="0%" y1="0%" x2="100%" y2="0%">
     <stop offset="0%"   stop-color="#ea4335"/>
     <stop offset="50%"  stop-color="#bf00ff"/>
     <stop offset="100%" stop-color="#4285f4"/>
    </linearGradient>
    <linearGradient id="alpha_color" x1="0%" y1="0%" x2="100%" y2="0%">
     <stop offset="0%"   stop-color="#4285f4"/>
     <stop offset="100%" stop-color="#34a853"/>
    </linearGradient>
  </defs>
  <path id="insider"
        fill="#34495e" stroke="none" stroke-width="1"
        d="M 443.01,55.78
           C 452.66,56.32 450.88,66.61 444.98,67.63
             438.78,68.70 433.54,58.97 443.01,55.78 Z
           M 486.00,70.00
           C 486.00,67.32 485.57,60.48 487.02,58.44
             487.77,57.40 488.76,56.87 490.04,56.77
             495.44,56.35 494.99,62.41 495.00,66.00
             495.00,66.00 495.00,106.00 495.00,106.00
             495.00,108.18 495.21,111.84 493.98,113.69
             492.61,115.73 486.19,118.92 486.00,109.00
             486.00,109.00 486.00,79.00 486.00,79.00
             482.69,79.00 473.75,78.48 471.23,80.02
             466.72,82.77 467.92,94.17 468.00,99.00
             468.05,101.30 467.99,103.72 469.60,105.57
             473.58,110.15 481.51,105.66 482.63,111.13
             483.79,116.81 476.43,116.04 473.00,116.00
             470.97,115.97 468.99,115.95 467.00,115.47
             456.05,112.80 459.00,99.66 459.00,91.00
             459.00,86.62 458.32,79.71 460.74,76.04
             465.76,68.41 478.01,70.00 486.00,70.00 Z
           M 330.05,57.76
           C 335.57,57.91 335.90,59.97 336.00,65.00
             336.00,65.00 336.00,106.00 336.00,106.00
             336.00,108.18 336.21,111.85 334.98,113.69
             333.37,116.10 326.20,118.64 326.00,108.00
             326.00,108.00 326.00,67.00 326.00,67.00
             326.01,62.33 325.16,59.61 330.05,57.76 Z
           M 359.00,70.23
           C 359.00,70.23 364.00,70.23 364.00,70.23
             369.85,69.88 376.55,70.19 380.57,75.11
             382.92,77.98 382.95,80.50 383.00,84.00
             383.00,84.00 383.00,108.00 383.00,108.00
             382.93,119.18 376.35,115.66 375.02,113.69
             373.79,111.85 374.00,108.18 374.00,106.00
             374.00,106.00 374.00,88.00 374.00,88.00
             373.97,85.93 374.01,83.10 372.83,81.31
             370.26,77.47 359.59,78.19 357.31,82.15
             355.24,85.75 356.01,101.97 356.00,107.00
             356.00,108.65 356.14,112.16 355.43,113.63
             354.01,116.39 349.74,116.25 348.02,113.63
             346.79,111.85 347.00,108.18 347.00,106.00
             347.00,106.00 347.00,90.00 347.00,90.00
             347.00,79.01 346.01,73.00 359.00,70.23 Z
           M 404.00,70.47
           C 410.15,69.61 419.67,69.43 424.67,73.65
             427.82,76.30 431.29,83.91 426.69,86.81
             425.16,87.78 423.00,87.82 421.48,86.81
             419.35,85.39 419.34,82.35 417.44,80.60
             414.93,78.29 404.26,77.64 402.88,83.05
             402.00,86.55 405.03,88.39 408.00,88.85
             411.66,89.43 420.36,87.78 425.77,93.22
             430.53,98.01 430.35,109.14 424.89,113.35
             421.19,116.21 417.39,115.99 413.00,116.00
             413.00,116.00 407.00,116.00 407.00,116.00
             401.58,115.92 396.98,114.92 393.85,109.96
             391.81,106.71 391.14,100.46 396.10,99.54
             401.09,98.61 401.22,103.08 403.58,105.57
             405.38,107.48 407.50,107.83 410.00,107.95
             413.39,108.12 419.14,107.52 419.26,102.98
             419.35,99.42 415.87,98.31 413.00,98.06
             406.90,97.53 401.45,99.15 396.23,94.44
             391.58,90.26 389.07,74.16 404.00,70.47 Z
           M 441.31,71.03
           C 448.76,68.46 448.97,74.45 449.00,80.00
             449.00,80.00 449.00,106.00 449.00,106.00
             448.99,108.28 449.13,111.74 447.83,113.69
             446.01,116.41 441.83,116.40 440.02,113.69
             438.88,111.98 439.01,108.99 439.00,107.00
             439.00,107.00 439.00,80.00 439.00,80.00
             439.01,75.91 438.41,74.13 441.31,71.03 Z
           M 532.00,89.00
           C 531.87,86.42 531.84,83.45 530.15,81.31
             527.53,78.02 518.27,78.14 515.60,81.31
             513.26,84.09 513.98,93.23 514.22,97.00
             514.01,98.70 513.97,101.36 514.22,102.96
             516.05,108.52 525.45,109.73 529.49,106.26
             531.50,104.54 531.91,101.36 534.27,100.07
             536.24,98.98 538.71,99.59 539.98,101.43
             540.83,102.67 540.98,104.55 540.87,106.00
             540.15,116.39 528.53,116.01 521.00,116.00
             515.86,115.99 511.13,116.07 507.43,111.79
             504.67,108.59 505.01,104.94 505.00,101.00
             505.00,101.00 505.00,89.00 505.00,89.00
             505.00,80.72 504.22,73.88 514.00,70.94
             516.29,70.25 518.62,70.07 521.00,70.01
             527.98,69.85 537.31,70.37 540.26,78.00
             541.23,80.51 541.04,86.15 541.00,89.00
             540.85,99.36 537.00,98.08 525.00,98.00
             523.18,97.99 520.08,98.15 518.60,96.98
             517.45,96.07 517.09,94.49 517.19,93.09
             517.55,88.24 523.53,89.01 527.00,89.00
             527.00,89.00 532.00,89.00 532.00,89.00 Z
           M 560.00,79.00
           C 560.00,79.00 560.00,95.00 560.00,95.00
             560.00,95.00 560.00,107.00 560.00,107.00
             559.83,119.08 552.55,115.98 551.02,113.69
             549.79,111.84 550.00,108.18 550.00,106.00
             550.00,106.00 550.00,84.00 550.00,84.00
             550.01,81.38 549.89,78.43 551.17,76.05
             553.94,70.93 567.97,67.40 572.40,71.74
             574.32,73.61 574.27,76.97 571.71,78.26
             569.67,79.29 562.60,79.00 560.00,79.00 Z" />
  <path id="alpha"
        fill="url(#alpha_color)" stroke="none" stroke-width="1"
        d="M 172.04,56.91
           C 176.94,57.51 176.91,59.50 177.00,64.00
             177.00,64.00 177.00,107.00 177.00,107.00
             177.00,108.65 177.14,112.16 176.43,113.63
             175.01,116.39 170.74,116.25 169.02,113.63
             167.88,111.99 168.01,108.99 168.00,107.00
             168.00,107.00 168.00,66.00 168.00,66.00
             168.01,61.46 167.14,58.50 172.04,56.91 Z
           M 242.00,79.00
           C 242.00,79.00 242.00,108.00 242.00,108.00
             241.93,119.18 235.35,115.66 234.02,113.69
             232.79,111.85 233.00,108.18 233.00,106.00
             233.00,106.00 233.00,65.00 233.00,65.00
             233.02,62.11 232.64,58.11 236.14,57.08
             243.47,54.92 242.00,66.02 242.00,70.00
             248.33,70.00 258.69,69.11 263.96,72.72
             265.89,74.05 267.41,75.81 268.26,78.00
             269.55,81.34 269.03,102.90 269.00,108.00
             268.99,109.77 269.17,112.84 268.01,114.26
             267.27,115.17 266.11,115.59 264.97,115.63
             260.33,115.77 260.07,111.46 260.00,108.00
             260.00,108.00 260.00,88.00 260.00,88.00
             259.96,85.30 260.08,81.75 257.57,80.02
             255.29,78.45 245.21,79.00 242.00,79.00 Z
           M 197.00,79.00
           C 197.00,79.00 197.00,98.00 197.00,98.00
             197.00,98.00 197.00,118.00 197.00,118.00
             196.92,121.89 195.67,127.57 190.22,125.38
             185.42,123.46 187.00,107.71 187.00,103.00
             187.00,103.00 187.00,80.00 187.00,80.00
             187.04,77.08 186.95,73.89 189.43,71.85
             192.51,69.33 201.91,69.96 206.00,70.00
             208.72,70.04 210.30,70.08 213.00,70.67
             221.71,72.57 223.89,76.51 224.00,85.00
             224.00,85.00 224.00,100.00 224.00,100.00
             223.98,104.80 223.97,109.81 219.78,113.03
             215.93,116.00 208.73,116.63 204.04,115.85
             201.28,115.40 198.70,113.39 199.84,110.29
             201.43,105.98 208.72,110.06 212.40,105.69
             214.84,102.79 214.03,92.03 214.00,88.00
             213.98,85.27 214.27,81.75 211.69,80.02
             209.36,78.47 200.16,79.00 197.00,79.00 Z
           M 306.00,89.00
           C 305.91,81.77 304.96,79.01 297.00,79.01
             295.25,79.01 292.92,79.01 291.43,80.02
             288.65,81.91 289.38,86.02 285.86,87.16
             282.43,88.26 279.58,85.29 279.41,81.98
             279.22,78.22 281.92,74.26 285.09,72.44
             292.69,68.09 310.59,68.51 314.26,78.00
             315.57,81.37 315.01,101.93 315.00,107.00
             314.99,111.02 315.36,117.10 309.13,115.53
             304.31,114.31 306.00,101.12 306.00,97.00
             306.00,97.00 297.00,97.00 297.00,97.00
             286.94,97.19 287.17,103.86 289.60,106.26
             292.55,109.18 298.71,106.99 301.55,109.02
             302.56,109.74 303.14,110.75 303.14,112.00
             303.14,116.75 296.13,116.03 293.00,116.00
             288.86,115.95 284.54,115.66 281.39,112.58
             276.42,107.74 276.80,96.06 282.21,91.65
             287.01,87.74 299.73,89.00 306.00,89.00 Z" />
  <path id="logo"
        fill="url(#logo_color)" stroke="none" stroke-width="1"
        d="M 117.00,45.00
           C 117.00,45.00 105.28,82.00 105.28,82.00
             105.28,82.00 97.00,107.00 97.00,107.00
             95.27,112.19 89.81,131.73 87.30,134.77
             83.12,139.83 75.16,136.42 73.64,131.96
             72.70,129.21 74.16,125.65 74.98,123.00
             74.98,123.00 80.33,106.00 80.33,106.00
             80.33,106.00 96.67,56.00 96.67,56.00
             98.07,51.80 102.55,36.86 104.70,34.23
             107.46,30.84 114.84,29.99 119.00,30.32
             132.40,31.39 132.96,39.97 136.28,51.00
             136.28,51.00 154.33,107.00 154.33,107.00
             155.88,111.65 162.21,128.12 161.09,131.96
             159.53,137.31 151.26,138.56 147.65,134.69
             145.09,131.94 139.66,112.97 138.00,108.00
             138.00,108.00 130.00,84.00 130.00,84.00
             130.00,84.00 117.00,45.00 117.00,45.00 Z
           M 113.04,94.85
           C 116.50,93.90 119.73,93.54 122.89,95.74
             129.31,100.20 128.01,111.21 120.00,114.10
             109.83,117.76 100.65,102.19 113.04,94.85 Z" />
</svg>
